<?xml version="1.0" standalone="no"?>
<!DOCTYPE svg PUBLIC "-//W3C//DTD SVG 20010904//EN"
 "http://www.w3.org/TR/2001/REC-SVG-20010904/DTD/svg10.dtd">
<svg version="1.0" xmlns="http://www.w3.org/2000/svg"
 width="2179.000000pt" height="2179.000000pt" viewBox="0 0 2179.000000 2179.000000"
 preserveAspectRatio="xMidYMid meet">
<metadata>
Created by potrace 1.14, written by Peter Selinger 2001-2017
</metadata>
<g transform="translate(0.000000,2179.000000) scale(0.100000,-0.100000)"
fill="#000000" stroke="none">
<path d="M11420 16291 c-1 -53 -1 -715 -1 -1471 l0 -1374 33 -31 c18 -16 65
-57 103 -90 152 -131 360 -338 464 -463 66 -79 73 -92 39 -70 -246 161 -641
372 -904 482 -60 26 -119 51 -131 56 -150 65 -398 149 -647 219 -98 28 -188
53 -200 55 -11 2 -61 13 -111 25 -170 38 -402 81 -520 96 -42 5 -113 14 -155
20 -14 2 -52 7 -85 10 -33 3 -76 8 -95 10 -33 4 -135 13 -240 21 -387 27
-1025 22 -1330 -11 -25 -2 -72 -7 -105 -10 -33 -3 -76 -8 -95 -11 -19 -2 -55
-6 -80 -9 -25 -3 -56 -7 -70 -10 -14 -2 -44 -7 -67 -10 -83 -11 -99 -14 -188
-30 -132 -23 -424 -85 -515 -109 -8 -2 -53 -14 -100 -26 -76 -19 -133 -36
-345 -100 -33 -10 -80 -26 -105 -35 -25 -9 -52 -18 -60 -20 -26 -6 -402 -151
-465 -180 -189 -85 -380 -179 -520 -255 -195 -106 -201 -110 -235 -131 -14 -9
-81 -51 -150 -95 -69 -43 -151 -96 -182 -119 -31 -22 -82 -58 -114 -80 -31
-22 -111 -82 -178 -134 -107 -84 -147 -117 -285 -236 -239 -207 -532 -524
-743 -803 -79 -105 -281 -405 -312 -464 l-20 -36 34 -64 c19 -35 49 -90 66
-123 17 -33 35 -59 39 -58 4 0 62 54 129 120 172 167 451 395 621 506 22 14
65 44 96 65 31 21 63 42 70 46 8 3 64 38 124 76 93 59 147 91 278 165 9 5 63
34 120 64 l102 53 -135 -137 c-74 -75 -144 -147 -155 -159 -11 -12 -45 -49
-75 -82 -171 -186 -277 -312 -448 -529 -147 -187 -394 -556 -502 -750 -255
-456 -419 -803 -621 -1313 -38 -98 -74 -186 -78 -197 -14 -31 -118 -314 -167
-455 -24 -69 -48 -134 -53 -145 -5 -11 -28 -76 -51 -145 -23 -69 -44 -132 -47
-140 -3 -8 -18 -49 -32 -90 l-27 -75 575 -573 575 -572 65 72 c137 153 494
503 651 638 41 36 77 68 80 71 28 31 444 358 545 428 28 19 52 37 55 40 29 33
545 363 690 443 24 12 50 28 59 33 71 44 455 241 601 308 379 174 844 344
1266 462 50 14 101 28 114 30 13 2 59 14 104 25 77 20 358 83 421 94 81 14
325 55 365 61 83 12 101 14 240 31 25 3 59 7 75 9 17 2 71 7 120 10 50 4 97 9
106 10 95 18 865 27 1094 12 186 -12 246 -16 305 -23 30 -3 73 -7 95 -9 39 -3
114 -13 165 -20 14 -2 52 -7 85 -11 33 -3 62 -8 65 -9 3 -2 30 -6 60 -10 57
-7 88 -11 130 -20 14 -3 41 -8 60 -11 31 -5 178 -33 205 -39 6 -1 28 -5 50
-10 189 -37 501 -118 740 -191 167 -52 414 -134 460 -153 11 -5 108 -44 215
-86 107 -43 227 -92 267 -111 40 -19 75 -34 78 -34 14 0 467 -226 592 -296
353 -195 832 -506 1028 -666 5 -5 28 -22 50 -39 22 -16 47 -35 55 -42 8 -7 53
-43 99 -80 164 -132 350 -298 525 -469 l120 -117 617 619 616 619 -69 118
c-153 259 -446 706 -631 963 -25 36 -66 92 -89 125 -62 86 -380 509 -387 515
-4 3 -37 45 -75 93 -55 71 -249 310 -334 412 -32 39 -187 220 -197 231 -5 6
-35 40 -65 74 -63 72 -63 72 -150 170 -68 77 -133 149 -237 259 -34 36 -60 67
-59 68 1 1 51 -23 111 -54 397 -204 862 -351 1480 -468 26 -5 234 -39 305 -50
60 -9 108 -15 155 -20 28 -3 66 -8 86 -10 19 -2 64 -7 100 -10 35 -3 84 -7
109 -10 288 -31 984 -38 1161 -11 13 2 51 7 84 10 115 12 151 17 265 36 161
28 162 28 288 56 213 48 530 150 702 226 213 96 382 188 550 301 88 59 179
126 200 147 3 3 27 23 55 45 52 42 201 188 272 266 57 63 151 190 216 290 58
90 177 326 177 350 0 8 4 19 9 24 8 9 42 105 47 131 1 6 9 36 17 65 23 80 55
246 63 330 16 156 8 442 -16 604 -5 33 -11 78 -15 100 -3 22 -10 56 -15 75 -5
19 -11 49 -13 65 -8 54 -68 248 -109 355 -166 429 -488 849 -893 1166 -228
177 -462 323 -755 470 -104 51 -192 94 -195 94 -4 0 -30 11 -59 24 -169 77
-527 205 -797 285 -228 68 -641 167 -814 197 -16 2 -37 7 -45 9 -8 2 -31 7
-50 10 -19 3 -42 8 -50 10 -8 2 -35 7 -60 10 -25 4 -63 10 -86 14 l-41 8 -200
-336 c-220 -369 -211 -343 -121 -356 99 -15 456 -100 633 -151 244 -71 607
-197 760 -264 22 -10 74 -32 115 -50 79 -34 357 -171 425 -210 491 -277 844
-598 1021 -925 51 -95 49 -93 74 -155 11 -30 25 -64 30 -75 56 -133 84 -467
51 -625 -6 -30 -12 -64 -14 -75 -14 -81 -59 -207 -113 -315 -160 -323 -466
-569 -826 -665 -99 -26 -120 -30 -233 -42 -144 -15 -304 -5 -450 27 -204 44
-465 168 -660 312 -210 156 -423 360 -598 573 -117 142 -305 397 -352 476 -5
9 -52 83 -102 164 -51 80 -93 148 -93 150 0 3 -22 42 -48 87 -26 46 -61 108
-76 138 -16 30 -40 73 -53 96 l-23 41 -143 3 c-78 1 -189 3 -247 5 -58 2 -164
4 -236 5 l-132 3 -85 101 c-203 242 -463 513 -686 716 -51 47 -103 94 -115
105 -51 49 -342 289 -456 376 -636 487 -1284 848 -1890 1052 -126 42 -259 82
-317 95 l-43 10 0 -97z"/>
</g>
</svg>
